<svg width="291" height="143" viewBox="0 0 291 143" fill="none" xmlns="http://www.w3.org/2000/svg">
<path d="M76.2382 95.9791H103.792V102.243H68.5311V44.1495H76.2382V95.9791Z" fill="#009BDB"/>
<path d="M133.861 78.7425H120.204V102.243H112.497V44.1495H131.745C138.294 44.1495 143.326 45.6391 146.84 48.6183C150.38 51.5975 152.151 55.9332 152.151 61.6255C152.151 65.2431 151.166 68.3952 149.196 71.0817C147.252 73.7683 144.537 75.7766 141.049 77.1066L154.706 101.764V102.243H146.48L133.861 78.7425ZM120.204 72.4782H131.985C135.792 72.4782 138.813 71.494 141.049 69.5257C143.312 67.5573 144.444 64.9239 144.444 61.6255C144.444 58.0346 143.365 55.2815 141.209 53.3663C139.079 51.4512 135.991 50.4803 131.945 50.4537H120.204V72.4782Z" fill="#009BDB"/>
<path d="M171.159 102.243H163.492V44.1495H171.159V102.243Z" fill="#009BDB"/>
<path d="M290.758 102.243H283.051L253.78 57.476V102.243H246.073V44.1495H253.78L283.131 89.1163V44.1495H290.758V102.243Z" fill="#009BDB"/>
<path fill-rule="evenodd" clip-rule="evenodd" d="M31.1139 51.4996L6.92606 97.1646H55.3018L31.1139 51.4996ZM32.921 44.2688C32.1531 42.8191 30.0747 42.8191 29.3068 44.2688L0.240275 99.1444C-0.480373 100.505 0.506755 102.143 2.04737 102.143H60.1805C61.7211 102.143 62.7082 100.505 61.9876 99.1444L32.921 44.2688Z" fill="#009BDB"/>
<path fill-rule="evenodd" clip-rule="evenodd" d="M208.31 97.3075C222.496 97.3075 233.996 85.8171 233.996 71.6429C233.996 57.4687 222.496 45.9782 208.31 45.9782C194.124 45.9782 182.624 57.4687 182.624 71.6429C182.624 85.8171 194.124 97.3075 208.31 97.3075ZM208.31 102.286C225.248 102.286 238.978 88.5664 238.978 71.6429C238.978 54.7193 225.248 41 208.31 41C191.372 41 177.641 54.7193 177.641 71.6429C177.641 88.5664 191.372 102.286 208.31 102.286Z" fill="#575759"/>
<path d="M218.459 71.2143C218.459 76.8555 213.882 81.4286 208.236 81.4286C202.59 81.4286 198.013 76.8555 198.013 71.2143C198.013 65.5731 202.59 61 208.236 61C213.882 61 218.459 65.5731 218.459 71.2143Z" fill="#85DEF2"/>
<path fill-rule="evenodd" clip-rule="evenodd" d="M139.863 143C179.385 143 211.423 110.988 211.423 71.5C211.423 32.0116 179.385 0 139.863 0C111.971 0 87.8062 15.9443 76 39.2085C87.5402 17.6586 110.271 3 136.426 3C174.258 3 204.926 33.6685 204.926 71.5C204.926 109.332 174.258 140 136.426 140C110.272 140 87.5403 125.341 76 103.791C87.8062 127.056 111.971 143 139.863 143Z" fill="#85DEF2"/>
<path d="M136.521 108.987V112.042H134.922L134.779 110.457H131.703V121.34L133.255 121.605V122.801H128.275V121.605L129.828 121.34V110.457H126.742L126.609 112.042H125V108.987H136.521Z" fill="#575759"/>
<path d="M141.473 123C140.038 123 138.895 122.526 138.045 121.577C137.201 120.622 136.778 119.385 136.778 117.867V117.45C136.778 115.989 137.213 114.774 138.083 113.806C138.959 112.832 139.994 112.345 141.187 112.345C142.571 112.345 143.618 112.763 144.329 113.598C145.046 114.433 145.405 115.546 145.405 116.937V118.104H138.721L138.692 118.152C138.711 119.139 138.962 119.951 139.444 120.59C139.927 121.223 140.603 121.539 141.473 121.539C142.107 121.539 142.663 121.45 143.139 121.273C143.621 121.09 144.037 120.84 144.386 120.524L145.119 121.738C144.751 122.092 144.262 122.393 143.653 122.639C143.05 122.88 142.323 123 141.473 123ZM141.187 113.816C140.559 113.816 140.022 114.082 139.578 114.613C139.133 115.138 138.86 115.799 138.759 116.596L138.778 116.643H143.529V116.397C143.529 115.663 143.333 115.049 142.939 114.556C142.545 114.063 141.961 113.816 141.187 113.816Z" fill="#575759"/>
<path d="M151.889 121.539C152.512 121.539 153.057 121.349 153.527 120.97C154.003 120.584 154.241 120.113 154.241 119.556H155.927L155.946 119.613C155.977 120.498 155.581 121.286 154.755 121.975C153.937 122.658 152.981 123 151.889 123C150.391 123 149.246 122.513 148.452 121.539C147.665 120.565 147.271 119.341 147.271 117.867V117.469C147.271 116.008 147.668 114.79 148.462 113.816C149.255 112.836 150.398 112.345 151.889 112.345C152.715 112.345 153.454 112.481 154.108 112.753C154.768 113.025 155.314 113.398 155.746 113.873L155.831 116.15H154.337L153.927 114.537C153.705 114.322 153.419 114.148 153.07 114.015C152.721 113.882 152.327 113.816 151.889 113.816C150.906 113.816 150.201 114.17 149.776 114.879C149.357 115.581 149.147 116.444 149.147 117.469V117.867C149.147 118.917 149.357 119.793 149.776 120.495C150.195 121.191 150.899 121.539 151.889 121.539Z" fill="#575759"/>
<path d="M157.517 121.605L159.069 121.34V109.471L157.517 109.205V108H160.945V113.901C161.3 113.408 161.735 113.025 162.249 112.753C162.763 112.481 163.335 112.345 163.963 112.345C165.068 112.345 165.924 112.674 166.534 113.332C167.143 113.99 167.448 115.002 167.448 116.368V121.34L169 121.605V122.801H164.02V121.605L165.572 121.34V116.349C165.572 115.502 165.388 114.875 165.02 114.471C164.658 114.066 164.115 113.863 163.392 113.863C162.878 113.863 162.408 113.987 161.982 114.233C161.564 114.474 161.218 114.803 160.945 115.22V121.34L162.497 121.605V122.801H157.517V121.605Z" fill="#575759"/>
</svg>
