<svg width="291" height="143" viewBox="0 0 291 143" fill="none" xmlns="http://www.w3.org/2000/svg">
<path d="M76.2382 95.9791H103.792V102.243H68.5311V44.1495H76.2382V95.9791Z" fill="#009BDB"/>
<path d="M133.861 78.7425H120.204V102.243H112.497V44.1495H131.745C138.294 44.1495 143.326 45.6391 146.84 48.6183C150.38 51.5975 152.151 55.9332 152.151 61.6255C152.151 65.2431 151.166 68.3952 149.196 71.0817C147.252 73.7683 144.537 75.7766 141.049 77.1066L154.706 101.764V102.243H146.48L133.861 78.7425ZM120.204 72.4782H131.985C135.792 72.4782 138.813 71.494 141.049 69.5257C143.312 67.5573 144.444 64.9239 144.444 61.6255C144.444 58.0346 143.365 55.2815 141.209 53.3663C139.079 51.4512 135.991 50.4803 131.945 50.4537H120.204V72.4782Z" fill="#009BDB"/>
<path d="M171.159 102.243H163.492V44.1495H171.159V102.243Z" fill="#009BDB"/>
<path d="M290.758 102.243H283.051L253.78 57.476V102.243H246.073V44.1495H253.78L283.131 89.1163V44.1495H290.758V102.243Z" fill="#009BDB"/>
<path fill-rule="evenodd" clip-rule="evenodd" d="M31.1139 51.4996L6.92606 97.1646H55.3018L31.1139 51.4996ZM32.921 44.2688C32.1531 42.8191 30.0747 42.8191 29.3068 44.2688L0.240275 99.1444C-0.480373 100.505 0.506755 102.143 2.04737 102.143H60.1805C61.7211 102.143 62.7082 100.505 61.9876 99.1444L32.921 44.2688Z" fill="#009BDB"/>
<path fill-rule="evenodd" clip-rule="evenodd" d="M208.31 97.3075C222.496 97.3075 233.996 85.8171 233.996 71.6429C233.996 57.4687 222.496 45.9782 208.31 45.9782C194.124 45.9782 182.624 57.4687 182.624 71.6429C182.624 85.8171 194.124 97.3075 208.31 97.3075ZM208.31 102.286C225.248 102.286 238.978 88.5664 238.978 71.6429C238.978 54.7193 225.248 41 208.31 41C191.372 41 177.641 54.7193 177.641 71.6429C177.641 88.5664 191.372 102.286 208.31 102.286Z" fill="#009BDB"/>
<path d="M218.533 71.2143C218.533 76.8555 213.956 81.4286 208.31 81.4286C202.664 81.4286 198.087 76.8555 198.087 71.2143C198.087 65.5731 202.664 61 208.31 61C213.956 61 218.533 65.5731 218.533 71.2143Z" fill="#009BDB"/>
<path fill-rule="evenodd" clip-rule="evenodd" d="M139.937 143C179.458 143 211.497 110.988 211.497 71.5C211.497 32.0116 179.458 0 139.937 0C112.045 0 87.8797 15.9443 76.0735 39.2085C87.6137 17.6586 110.345 3 136.5 3C174.331 3 205 33.6685 205 71.5C205 109.332 174.331 140 136.5 140C110.345 140 87.6138 125.341 76.0735 103.791C87.8797 127.056 112.045 143 139.937 143Z" fill="#009BDB"/>
<path d="M134.521 108.987V112.042H132.922L132.779 110.457H129.703V121.34L131.255 121.605V122.801H126.275V121.605L127.828 121.34V110.457H124.742L124.609 112.042H123V108.987H134.521Z" fill="#009BDB"/>
<path d="M139.473 123C138.038 123 136.895 122.526 136.045 121.577C135.201 120.622 134.778 119.385 134.778 117.867V117.45C134.778 115.989 135.213 114.774 136.083 113.806C136.959 112.832 137.994 112.345 139.187 112.345C140.571 112.345 141.618 112.763 142.329 113.598C143.046 114.433 143.405 115.546 143.405 116.937V118.104H136.721L136.692 118.152C136.711 119.139 136.962 119.951 137.444 120.59C137.927 121.223 138.603 121.539 139.473 121.539C140.107 121.539 140.663 121.45 141.139 121.273C141.621 121.09 142.037 120.84 142.386 120.524L143.119 121.738C142.751 122.092 142.262 122.393 141.653 122.639C141.05 122.88 140.323 123 139.473 123ZM139.187 113.816C138.559 113.816 138.022 114.082 137.578 114.613C137.133 115.138 136.86 115.799 136.759 116.596L136.778 116.643H141.529V116.397C141.529 115.663 141.333 115.049 140.939 114.556C140.545 114.063 139.961 113.816 139.187 113.816Z" fill="#009BDB"/>
<path d="M149.889 121.539C150.512 121.539 151.057 121.349 151.527 120.97C152.003 120.584 152.241 120.113 152.241 119.556H153.927L153.946 119.613C153.977 120.498 153.581 121.286 152.755 121.975C151.937 122.658 150.981 123 149.889 123C148.391 123 147.246 122.513 146.452 121.539C145.665 120.565 145.271 119.341 145.271 117.867V117.469C145.271 116.008 145.668 114.79 146.462 113.816C147.255 112.836 148.398 112.345 149.889 112.345C150.715 112.345 151.454 112.481 152.108 112.753C152.768 113.025 153.314 113.398 153.746 113.873L153.831 116.15H152.337L151.927 114.537C151.705 114.322 151.419 114.148 151.07 114.015C150.721 113.882 150.327 113.816 149.889 113.816C148.906 113.816 148.201 114.17 147.776 114.879C147.357 115.581 147.147 116.444 147.147 117.469V117.867C147.147 118.917 147.357 119.793 147.776 120.495C148.195 121.191 148.899 121.539 149.889 121.539Z" fill="#009BDB"/>
<path d="M155.517 121.605L157.069 121.34V109.471L155.517 109.205V108H158.945V113.901C159.3 113.408 159.735 113.025 160.249 112.753C160.763 112.481 161.335 112.345 161.963 112.345C163.068 112.345 163.924 112.674 164.534 113.332C165.143 113.99 165.448 115.002 165.448 116.368V121.34L167 121.605V122.801H162.02V121.605L163.572 121.34V116.349C163.572 115.502 163.388 114.875 163.02 114.471C162.658 114.066 162.115 113.863 161.392 113.863C160.878 113.863 160.408 113.987 159.982 114.233C159.564 114.474 159.218 114.803 158.945 115.22V121.34L160.497 121.605V122.801H155.517V121.605Z" fill="#009BDB"/>
</svg>
